<svg width="23" height="23" viewBox="0 0 23 23" fill="none" xmlns="http://www.w3.org/2000/svg">
<path d="M5.07176 18.097C5.50451 17.6123 7.53132 15.3819 8.12528 15.3819H14.4054C15.266 15.3819 17.0231 17.2307 17.4585 17.8824M20.2737 11.3406C20.2737 16.3158 16.2404 20.3491 11.2651 20.3491C6.28985 20.3491 2.25659 16.3158 2.25659 11.3406C2.25659 6.36529 6.28985 2.33203 11.2651 2.33203C16.2404 2.33203 20.2737 6.36529 20.2737 11.3406ZM14.4921 8.27012C14.4921 6.55145 13.0412 5.1472 11.2654 5.1472C9.48961 5.1472 8.0387 6.55145 8.0387 8.27012C8.0387 9.98879 9.48961 11.393 11.2654 11.393C13.0412 11.393 14.4921 9.98879 14.4921 8.27012Z" stroke="black" stroke-width="1.87678"/>
</svg>
