<svg width="162" height="40" viewBox="0 0 162 40" fill="none" xmlns="http://www.w3.org/2000/svg">
<g clip-path="url(#clip0_447_287)">
<path fill-rule="evenodd" clip-rule="evenodd" d="M143.41 21.7031H142.466V39.9081H146.071C147.168 38.571 147.978 37.0211 148.447 35.3561C148.914 33.696 149.029 31.9567 148.785 30.2496C148.541 28.5425 147.943 26.905 147.029 25.4421C146.11 23.9657 144.898 22.6929 143.468 21.7021L143.41 21.7031ZM148.681 39.9081H161.059V32.3201C158.459 32.2143 155.886 32.8826 153.666 34.2402C151.468 35.5834 149.73 37.5619 148.681 39.9142V39.9081ZM147.174 21.7021C148.213 24.4143 150.149 26.6889 152.662 28.1471C155.199 29.6236 158.157 30.2094 161.066 29.8111V21.7031L147.174 21.7021Z" fill="#E0013F"/>
<path fill-rule="evenodd" clip-rule="evenodd" d="M152.155 35.3248C154.075 36.4225 155.676 38.0018 156.799 39.9068H161.067V32.3208C157.828 32.1858 154.654 33.2585 152.162 35.3308L152.155 35.3248ZM142.444 31.7988V39.8928H146.049C147.221 38.4647 148.062 36.7956 148.513 35.0048C148.962 33.2198 149.006 31.3608 148.644 29.5568C146.814 30.8149 144.692 31.5843 142.48 31.7918L142.444 31.7988ZM156.38 21.6948H147.174C147.799 23.3369 148.76 24.8302 149.997 26.0788C151.244 27.3382 152.737 28.3277 154.383 28.9858C154.276 26.4076 154.974 23.8588 156.38 21.6948Z" fill="#98014C"/>
<path fill-rule="evenodd" clip-rule="evenodd" d="M134.045 30.8051C136.485 28.2914 138.156 25.1336 138.862 21.7031H120.282V39.9081H138.862C138.146 36.4733 136.462 33.3147 134.009 30.8051H134.045Z" fill="#67B2CA"/>
<path fill-rule="evenodd" clip-rule="evenodd" d="M133.598 21.7031H120.282V25.0231C123.456 25.0182 126.582 25.798 129.381 27.2931C131.071 25.6621 132.494 23.7758 133.598 21.7031ZM129.381 34.3161C126.582 35.8121 123.456 36.5919 120.282 36.5861V39.9081H133.598C132.494 37.8349 131.071 35.9479 129.381 34.3161Z" fill="#B3E2D8"/>
<path fill-rule="evenodd" clip-rule="evenodd" d="M120.282 25.0228V28.9078C121.808 29.3861 123.28 30.0219 124.674 30.8048C126.39 29.8377 127.975 28.6529 129.388 27.2798C126.589 25.7846 123.463 25.0047 120.289 25.0098L120.282 25.0228ZM120.282 32.7018V36.5868C123.456 36.5927 126.582 35.8128 129.381 34.3168C127.968 32.9434 126.383 31.7582 124.666 30.7908C123.272 31.5737 121.801 32.2091 120.275 32.6868L120.282 32.7018Z" fill="#05759F"/>
<path fill-rule="evenodd" clip-rule="evenodd" d="M142.466 18.2202H161.081V10.3582H142.466V18.2202ZM142.466 0.0141602V8.65816H161.081V0.0281602L142.466 0.0141602Z" fill="#A6D514"/>
<path fill-rule="evenodd" clip-rule="evenodd" d="M142.466 15.7438H161.081V12.0358H142.466V15.7438ZM142.466 0.027832V6.47983H161.081V0.027832H142.466Z" fill="#40A629"/>
<path fill-rule="evenodd" clip-rule="evenodd" d="M129.914 12.727C128.702 11.9978 127.664 11.0137 126.872 9.843C126.654 8.97505 126.674 8.06454 126.93 7.207C127.187 6.34499 127.669 5.56703 128.327 4.953C128.991 4.33271 129.805 3.89574 130.689 3.685C131.578 3.4726 132.506 3.49257 133.385 3.743C134.262 3.993 135.057 4.465 135.689 5.111C136.318 5.75297 136.765 6.55103 136.984 7.423C137.2 8.29081 137.18 9.20096 136.924 10.058C136.665 10.92 136.182 11.6976 135.523 12.311C134.677 12.8589 133.709 13.1906 132.704 13.277C133.886 13.3749 135.073 13.1787 136.159 12.706C137.239 12.2374 138.183 11.5049 138.905 10.576V0H120.282V18.22H138.862V13.425C137.412 14.013 135.846 14.2555 134.286 14.1331C132.727 14.0107 131.218 13.5269 129.878 12.72L129.914 12.727Z" fill="#FFB300"/>
<path fill-rule="evenodd" clip-rule="evenodd" d="M126.028 8.34781C125.629 6.88335 125.64 5.3374 126.06 3.87881C126.483 2.41294 127.297 1.08951 128.414 0.0498086H126.345C125.666 1.3183 125.284 2.72483 125.229 4.16274C125.174 5.60065 125.447 7.03219 126.028 8.34881V8.34781ZM136.121 18.2538H138.862V16.4138C138.034 17.137 137.112 17.7443 136.121 18.2188V18.2538ZM121.386 0.0288086H120.282V1.57981L120.433 1.33381C120.721 0.878808 121.04 0.443809 121.386 0.0288086ZM120.282 13.5668V18.2198H125.416C125.065 18.0508 124.721 17.8648 124.384 17.6628C122.7 16.6503 121.291 15.2387 120.282 13.5528V13.5668Z" fill="#FF8000"/>
<path fill-rule="evenodd" clip-rule="evenodd" d="M129.915 12.7272C127.804 11.4594 126.254 9.43574 125.58 7.06716C124.918 4.71212 125.193 2.19254 126.347 0.0351562H123.506C122.204 2.07395 121.681 4.51409 122.034 6.90716C122.394 9.30758 123.602 11.5001 125.438 13.0882C127.297 14.6967 129.657 15.6089 132.115 15.6682C134.582 15.7312 136.992 14.9392 138.92 13.4322C137.471 14.0201 135.904 14.2625 134.345 14.1402C132.786 14.0178 131.276 13.534 129.936 12.7272H129.915ZM136.987 0.592156C136.627 0.375617 136.248 0.191557 135.855 0.0421562H130.737C129.493 0.516196 128.41 1.33402 127.614 2.40016C126.827 3.45527 126.364 4.71654 126.282 6.03016C126.542 4.96687 127.094 3.99723 127.875 3.23016C128.666 2.4548 129.653 1.90957 130.73 1.65316C131.811 1.39466 132.943 1.43301 134.004 1.76416C135.06 2.09236 136.006 2.70307 136.74 3.53016C137.466 4.34833 137.948 5.35321 138.133 6.43116C138.315 7.50579 138.19 8.60998 137.773 9.61716C137.352 10.6311 136.658 11.5086 135.768 12.1522C134.869 12.8022 133.81 13.1962 132.705 13.2922C133.886 13.3903 135.073 13.1945 136.16 12.7222C137.239 12.2538 138.183 11.5213 138.905 10.5922V2.27716C138.376 1.60113 137.725 1.0304 136.987 0.592156Z" fill="#FF6600"/>
<path fill-rule="evenodd" clip-rule="evenodd" d="M42.0311 34.6972V35.2612H39.8901V39.9082H39.2057V34.6972H42.0311ZM43.697 37.2562C43.8831 37.2982 44.0752 37.3172 44.2673 37.3132C45.0957 37.3132 45.5999 36.9182 45.5999 36.1992C45.5999 35.4792 45.1027 35.1762 44.3453 35.1762C44.1278 35.1712 43.9103 35.1903 43.697 35.2332V37.2562ZM42.9766 34.7462C43.4128 34.6779 43.8538 34.6451 44.2953 34.6482C44.8283 34.6052 45.3588 34.7581 45.787 35.0782C45.9415 35.2141 46.0638 35.3827 46.1448 35.5718C46.2258 35.7609 46.2635 35.9657 46.2553 36.1712C46.2663 36.375 46.2356 36.5789 46.1651 36.7705C46.0946 36.962 45.9857 37.1372 45.8451 37.2852C45.6244 37.483 45.3668 37.6352 45.0872 37.7332C44.8075 37.8312 44.5112 37.873 44.2152 37.8562C44.0292 37.8605 43.8433 37.8437 43.661 37.8062V39.9222H42.9406V34.7752L42.9756 34.7462H42.9766ZM47.727 34.6972L48.7865 36.9252C48.9236 37.2352 49.0467 37.5452 49.1767 37.8492C49.2698 37.5882 49.3708 37.2782 49.5069 36.9112L50.3373 34.6972H51.0577L49.9401 37.3772C49.6863 38.0736 49.3522 38.738 48.9446 39.3572C48.8086 39.5517 48.6282 39.7111 48.4184 39.8222C48.2083 39.9332 47.9731 39.9942 47.734 39.9992C47.6021 40.0037 47.4703 39.9868 47.3438 39.9492L47.4169 39.3992C47.5009 39.4102 47.5849 39.4102 47.669 39.3992C48.2243 39.3992 48.5494 38.8852 48.7145 38.5042C48.7437 38.4578 48.7592 38.404 48.7592 38.3492C48.7592 38.2944 48.7437 38.2406 48.7145 38.1942L46.9406 34.6692L47.727 34.6972ZM55.8951 34.6972V39.9072H55.2038V35.2612H52.7305V39.9082H52.0462V34.6972H55.8951ZM61.3379 34.6972V39.9072H60.6535V35.2612H58.1793V39.9082H57.4869V34.6972H61.3379ZM65.548 37.7432L65.0287 36.2412C64.9137 35.9032 64.8346 35.5932 64.7556 35.2892C64.6755 35.5992 64.5895 35.9172 64.4884 36.2342L63.9692 37.7432H65.548ZM63.8041 38.2722L63.2488 39.9152H62.5285L64.3374 34.7052H65.1658L66.9827 39.9152H66.2623L65.692 38.2722H63.8041ZM70.9257 34.6972V37.0102H71.1428L72.9667 34.6972H73.7961L71.7771 37.0872C72.1373 37.1372 72.4725 37.2912 72.7386 37.5322C73.0057 37.7722 73.1908 38.0882 73.2689 38.4342C73.435 38.9382 73.6291 39.4322 73.8532 39.9142H73.1328C72.9423 39.5177 72.7808 39.108 72.6496 38.6882C72.5875 38.3493 72.4031 38.0451 72.1313 37.8332C71.8563 37.6182 71.5135 37.5086 71.1648 37.5242H70.9407V39.9142H70.2634V34.7042L70.9257 34.6972ZM75.1948 37.3342C75.1948 38.4482 75.8151 39.4492 76.8957 39.4492C77.9772 39.4492 78.6046 38.4692 78.6046 37.2852C78.6046 36.2482 78.0493 35.1702 76.9037 35.1702C75.7571 35.1702 75.1948 36.1992 75.1948 37.3412V37.3342ZM79.3329 37.2492C79.3329 39.0402 78.2154 39.9922 76.8597 39.9922C75.505 39.9922 74.4665 38.9282 74.4665 37.3482C74.4665 35.7682 75.519 34.6122 76.9397 34.6122C78.3604 34.6122 79.3329 35.7052 79.3329 37.2492ZM85.0858 37.6162C85.0498 36.9112 84.9998 36.0162 85.0068 35.3662C84.8267 35.9802 84.6036 36.6362 84.3364 37.3482L83.3489 39.8722H82.8297L81.9642 37.3912C81.7242 36.7272 81.5172 36.0517 81.3439 35.3672C81.3439 36.0162 81.2869 36.8902 81.2439 37.6732L81.0998 39.9082H80.4655L80.8397 34.6972H81.7201L82.6276 37.2212C82.8437 37.8632 83.0318 38.4342 83.1618 38.9772C83.2979 38.4482 83.486 37.8772 83.7241 37.2212L84.6746 34.6972H85.555L85.8862 39.9072H85.2159L85.0788 37.6172L85.0858 37.6162ZM91.1999 34.6972V39.9072H90.5075V35.2612H88.0353V39.9082H87.3429V34.6972H91.1999ZM95.403 37.7432L94.8827 36.2412C94.7687 35.9032 94.6886 35.5932 94.6096 35.2892C94.5296 35.5992 94.4435 35.9172 94.3425 36.2342L93.8242 37.7432H95.403ZM93.6581 38.2722L93.1028 39.9152H92.3825L94.1914 34.7052H95.0208L96.8377 39.9152H96.1174L95.5471 38.2722H93.6581ZM98.7117 34.6972V36.8762H101.293V34.6972H101.985V39.9072H101.293V37.4612H98.7117V39.9082H98.0273V34.6972H98.7117ZM104.256 34.6972V36.8902C104.256 37.7082 104.256 38.3992 104.191 39.0972C104.459 38.5542 104.79 37.9902 105.18 37.3692L106.903 34.6902H107.623V39.9002H106.975V37.6802C106.975 36.8342 106.975 36.2202 107.04 35.5642C106.748 36.1701 106.418 36.7567 106.051 37.3202L104.387 39.9082H103.665V34.6982H104.256V34.6972ZM110.695 33.5972C110.695 33.8442 110.81 34.0832 111.178 34.0832C111.545 34.0832 111.632 33.8512 111.66 33.5972H112.186C112.15 34.1122 111.833 34.4292 111.163 34.4292C111.041 34.446 110.916 34.4372 110.798 34.4035C110.679 34.3698 110.569 34.3118 110.474 34.2332C110.38 34.1552 110.305 34.0581 110.252 33.9483C110.199 33.8386 110.171 33.7189 110.168 33.5972H110.695ZM109.822 34.6972V36.8902C109.822 37.7082 109.822 38.3992 109.757 39.0972C110.024 38.5542 110.356 37.9902 110.745 37.3692L112.468 34.6892H113.189V39.9002H112.541V37.6802C112.541 36.8332 112.541 36.2202 112.605 35.5642C112.315 36.1702 111.985 36.7562 111.617 37.3202L109.952 39.9072H109.231V34.6972H109.822ZM108.07 19.7142L113.996 9.9982H109.505L105.9 16.4422L102.345 9.9982H97.8182L103.744 19.7142L97.414 29.9382H101.963L105.885 22.9932L109.836 29.9382H114.386L108.034 19.7142H108.07ZM81.8492 29.9382H95.2799V26.4622H85.8352V21.7022H93.8742V18.2202H85.8292V13.4602H95.2739V9.9842H81.8412V29.9242L81.8492 29.9382ZM64.4234 13.4742H69.7521V29.9382H73.7311V13.4742H79.0238V9.9982H64.3864V13.4742H64.4234ZM58.7205 20.7362C58.7205 23.5072 58.6055 24.9672 57.7481 25.8622C57.4229 26.2122 57.0247 26.4912 56.5815 26.6792C56.1365 26.8678 55.6571 26.9618 55.1738 26.9552C54.6937 26.9627 54.2174 26.869 53.7761 26.6802C53.3373 26.4929 52.9436 26.214 52.6215 25.8622C51.8511 25.0232 51.62 23.8462 51.62 20.9272V19.0582C51.62 16.5342 51.8221 14.9412 52.6225 14.0452C52.9429 13.6934 53.3367 13.4162 53.7761 13.2332C54.2173 13.0492 54.6945 12.9632 55.1738 12.9812C55.656 12.9672 56.1352 13.0542 56.5795 13.2382C57.0237 13.4222 57.4229 13.6982 57.7481 14.0452C58.5184 14.9122 58.7215 16.3442 58.7215 18.9172V20.7372L58.7205 20.7362ZM55.1748 9.5122C54.1537 9.47915 53.1368 9.6565 52.1873 10.0332C51.243 10.4074 50.387 10.9741 49.674 11.6972C48.1602 13.2422 47.785 15.3212 47.67 18.2332H44.5774V9.9982H40.5974V29.9382H44.5774V21.7022H47.641C47.699 24.3322 47.9871 26.5602 49.674 28.2382C51.1657 29.6417 53.1381 30.4217 55.1868 30.4182C57.2428 30.4182 59.2188 29.6372 60.6975 28.2382C62.6725 26.2222 62.7015 23.9022 62.7015 20.5682V17.8882C62.7015 15.1452 62.2113 13.2132 60.6975 11.6982C59.9773 10.9788 59.1172 10.4145 58.1703 10.0402C57.2177 9.66381 56.1987 9.4842 55.1748 9.5122ZM23.1867 19.0442C23.1867 25.2912 21.7449 26.4622 19.6899 26.4622H19.1196V29.9382H20.6924C24.9315 29.9382 27.0216 27.6392 27.0216 19.2702V13.4742H31.888V29.9382H35.868V9.9982H23.1787V19.0442H23.1867ZM6.50327 23.1542L9.09157 15.8792L11.5708 23.1552H6.50327V23.1542ZM7.41873 10.0192L0 29.9602H4.15209L5.38571 26.4342H12.5953L13.7989 29.9602H17.951L10.5333 10.0002L7.41873 10.0202V10.0192Z" fill="#4D4D4D"/>
</g>
<defs>
<clipPath id="clip0_447_287">
<rect width="161.081" height="40" fill="white"/>
</clipPath>
</defs>
</svg>
