<svg width="137" height="41" viewBox="0 0 137 41" fill="none" xmlns="http://www.w3.org/2000/svg">
<path d="M123.971 16.8917V32.8602H128.062C129.231 30.2359 130.457 27.3446 131.512 24.9872C132.172 23.4526 132.625 22.2961 133.285 20.4057H133.398C133.266 23.4304 133.172 24.6091 133.172 27.1667V32.8602H136.434V16.8917H132.285L128.948 24.3644C128.251 26.0325 127.836 27.2112 127.119 29.0794H127.044C127.157 26.8554 127.232 25.1429 127.232 22.6297V16.8917H123.971ZM114.091 19.8942H117.786V29.8578H112.507C112.922 29.0127 113.28 28.0119 113.506 27.011C113.902 25.4765 114.091 23.764 114.091 22.0515V19.8942ZM111.112 16.8917V20.9172C111.112 22.8744 110.885 24.8093 110.414 26.6552C110.112 27.8117 109.641 28.9237 109.075 29.9245L107.85 30.0135L107.963 37.9532H110.584L110.753 32.838H119.672L119.804 37.9532H122.424L122.556 29.9912L121.105 29.9245V16.8695H111.112V16.8917ZM98.0263 23.6972C98.0263 23.3636 98.0828 23.0078 98.1582 22.6742C98.4976 20.895 99.7986 19.694 101.213 19.694C103.4 19.694 104.569 21.9847 104.569 24.8093C104.569 27.9674 103.287 30.0802 101.118 30.0802C99.6666 30.0802 98.4411 28.9015 98.1205 27.2557C98.0451 26.8998 98.0074 26.544 98.0074 26.1437V23.6972H98.0263ZM94.5947 39.3544H98.0074V31.081H98.064C98.7616 32.3709 100.176 33.2161 101.873 33.2161C104.965 33.2161 108.038 30.436 108.038 24.6536C108.038 19.6718 105.455 16.5136 102.344 16.5136C100.289 16.5136 98.705 17.5367 97.7057 19.3382H97.6492L97.4795 16.8695H94.4816C94.5381 18.3818 94.5947 20.0943 94.5947 22.1849V39.3544ZM88.7497 27.2557C88.7497 27.5226 88.7308 27.8562 88.6366 28.1453C88.3349 29.3018 87.3356 30.3471 85.9592 30.3471C84.8656 30.3471 84.0171 29.6354 84.0171 28.0563C84.0171 25.6321 86.3174 25.0094 88.7497 25.0761V27.2557ZM92.2756 32.8602C92.1436 31.8817 92.087 30.4583 92.087 29.0127V23.2302C92.087 19.7607 90.8426 16.5136 86.506 16.5136C84.3565 16.5136 82.6219 17.2031 81.6037 17.9148L82.2636 20.5391C83.1875 19.8497 84.5639 19.3604 85.9026 19.3604C88.2972 19.3604 88.6554 21.0951 88.6554 22.1404V22.4073C83.6589 22.3851 80.6233 24.4089 80.6233 28.4344C80.6233 30.8586 82.1505 33.1938 84.8845 33.1938C86.638 33.1938 88.0521 32.3042 88.8817 31.0588H88.9571L89.1834 32.838H92.2756V32.8602ZM75.9096 32.8602H79.2469L78.1533 10.7534H73.7035L71.1204 19.605C70.4039 22.1849 69.7629 24.9205 69.2538 27.3224H69.1784C68.707 24.8537 68.1225 22.2294 67.4626 19.6495L65.0115 10.7534H60.5052L59.2607 32.8602H62.4661L62.8809 23.9641C63.0129 20.9395 63.126 17.4477 63.2203 14.5565H63.2768C63.7859 17.3143 64.4458 20.339 65.1623 23.1412L67.67 32.5933H70.3097L73.0436 23.0078C73.8732 20.2278 74.6651 17.2253 75.2685 14.5565H75.3439C75.3251 17.5367 75.457 20.9839 75.5702 23.8307L75.9096 32.8602Z" fill="#273047"/>
<path d="M24.8701 30.3476L25.266 28.8575C25.3603 28.5016 25.4357 28.079 25.5111 27.7232H25.53C25.6054 28.079 25.6808 28.4794 25.7939 28.8575L26.1899 30.3476H24.8701ZM26.3407 31.1927L26.8121 32.9052H27.8114L26.1333 26.8558H24.9455L23.3051 32.9052H24.2667L24.7004 31.1927H26.3407ZM21.2688 32.9052H22.2115V27.7677H23.6822V26.8336H19.7981V27.7677H21.2688V32.9052ZM17.1584 27.6342C18.1012 27.6342 18.5725 28.7018 18.5725 29.8583C18.5725 31.126 18.0635 32.1045 17.1584 32.1045C16.2534 32.1045 15.7255 31.126 15.7255 29.9027C15.7255 28.6573 16.2346 27.6342 17.1584 27.6342ZM17.1773 26.7446C15.7255 26.7446 14.745 28.0568 14.745 29.925C14.745 31.7042 15.6501 33.0164 17.1019 33.0164C18.516 33.0164 19.5719 31.8599 19.5719 29.836C19.5719 28.079 18.6857 26.7446 17.1773 26.7446ZM11.7282 27.701C11.8225 27.6787 12.0111 27.6565 12.275 27.6565C12.9161 27.6565 13.3121 28.0123 13.3121 28.6795C13.3121 29.3912 12.8784 29.7915 12.1808 29.7915C11.9922 29.7915 11.8414 29.7915 11.7282 29.7471V27.701ZM10.8044 32.9052H11.7282V30.6144C11.8414 30.6367 12.0111 30.6589 12.1808 30.6589C12.8407 30.6589 13.4252 30.4588 13.8023 30.0139C14.0851 29.6803 14.2359 29.2133 14.2359 28.6351C14.2359 28.079 14.0285 27.5898 13.7269 27.3006C13.4063 26.967 12.8972 26.8113 12.2185 26.8113C11.5774 26.8113 11.1249 26.8558 10.7855 26.9448V32.9052H10.8044ZM7.59904 27.6342C8.54178 27.6342 9.01315 28.7018 9.01315 29.8583C9.01315 31.126 8.50407 32.1045 7.59904 32.1045C6.69401 32.1045 6.16607 31.126 6.16607 29.9027C6.18493 28.6573 6.67516 27.6342 7.59904 27.6342ZM7.6179 26.7446C6.16607 26.7446 5.18562 28.0568 5.18562 29.925C5.18562 31.7042 6.09066 33.0164 7.54248 33.0164C8.95659 33.0164 10.0125 31.8599 10.0125 29.836C10.0125 28.079 9.12628 26.7446 7.6179 26.7446ZM2.05572 30.1251H2.52709C3.16816 30.1251 3.69609 30.4143 3.69609 31.1037C3.69609 31.8599 3.16816 32.1268 2.5648 32.1268C2.3574 32.1268 2.18771 32.1268 2.07458 32.1045V30.1251H2.05572ZM2.05572 27.6565C2.15 27.6342 2.31969 27.612 2.58366 27.612C3.18701 27.612 3.54525 27.8789 3.54525 28.4349C3.54525 28.9464 3.18701 29.3023 2.52709 29.3023H2.05572V27.6565ZM1.13184 32.8829C1.37695 32.9274 1.7729 32.9719 2.28198 32.9719C3.22472 32.9719 3.82808 32.794 4.18632 32.4159C4.48799 32.1268 4.67654 31.7042 4.67654 31.1704C4.67654 30.3253 4.18632 29.836 3.63953 29.6803V29.6581C4.20517 29.4135 4.488 28.9019 4.488 28.3459C4.488 27.8344 4.28059 27.4341 3.96006 27.2117C3.60182 26.9226 3.18701 26.8336 2.48938 26.8336C1.96145 26.8336 1.41466 26.8781 1.13184 26.967V32.8829Z" fill="#273047"/>
<path d="M46.3083 37.4195V38.398H47.3265V39.0208H46.3083V40.2662H47.7036V40.9334H45.7615V36.7745H47.7224V37.4195H46.3083ZM44.5359 40.9334H43.9892V38.1312L42.3865 41.0002H42.1602V36.7745H42.707V39.5768L44.3097 36.7078H44.5359V40.9334ZM41.0478 40.9334C41.0101 40.9557 40.9535 40.9557 40.8593 40.9557C40.6707 40.9557 40.5199 40.889 40.4256 40.7778C40.3313 40.6443 40.2559 40.4441 40.2182 40.155C40.1616 39.7547 40.0674 39.4656 39.9354 39.2877C39.8034 39.1097 39.6148 39.0208 39.3509 39.0208H39.332V40.9112H38.7852V36.7523H39.332V38.398H39.3697C39.6148 38.398 39.8034 38.3313 39.9354 38.1756C40.0674 38.0422 40.1616 37.7976 40.1993 37.5084C40.237 37.2415 40.2936 37.0414 40.3879 36.9079C40.4633 36.7745 40.6141 36.73 40.8027 36.73C40.8781 36.73 40.9347 36.73 40.9912 36.7523V37.3972C40.9724 37.3972 40.9535 37.3972 40.897 37.3972C40.8404 37.3972 40.7838 37.4195 40.765 37.464C40.7461 37.5084 40.7084 37.5974 40.6896 37.7531C40.6519 37.9977 40.5764 38.1979 40.4445 38.3758C40.3125 38.5537 40.1616 38.6649 39.9731 38.7316C40.1805 38.8206 40.3313 38.9541 40.4445 39.132C40.5576 39.3099 40.6519 39.5768 40.6896 39.9104C40.7084 40.0883 40.7461 40.1773 40.765 40.2217C40.8027 40.2662 40.8404 40.2885 40.9158 40.2885C40.9535 40.2885 40.9724 40.2885 40.9912 40.2662V40.9334H41.0478ZM37.6916 36.9969L37.4654 37.5974C37.3334 37.4417 37.1449 37.3528 36.8809 37.3528C36.6169 37.3528 36.3907 37.5084 36.2398 37.7976C36.089 38.1089 35.9947 38.4648 35.9947 38.8873C35.9947 39.3099 36.0701 39.6657 36.221 39.9326C36.3718 40.1995 36.5792 40.3329 36.8432 40.3329C37.126 40.3329 37.3523 40.1995 37.522 39.9104L37.7859 40.5109C37.5597 40.8222 37.2391 40.9779 36.8055 40.9779C36.3718 40.9779 36.0324 40.7777 35.8062 40.3997C35.5611 40.0216 35.4479 39.4878 35.4479 38.8428C35.4479 38.2424 35.5799 37.7308 35.8439 37.3083C36.1078 36.8857 36.4472 36.6855 36.862 36.6855C37.1826 36.6855 37.4654 36.7967 37.6916 36.9969ZM33.0534 37.4195V38.398H34.0715V39.0208H33.0534V40.2662H34.4486V40.9334H32.5066V36.7745H34.4675V37.4195H33.0534ZM31.281 40.9334H30.7342V39.2877C30.5457 39.3321 30.376 39.3766 30.1874 39.3766C29.848 39.3766 29.6029 39.2654 29.4144 39.043C29.2258 38.8206 29.1316 38.487 29.1316 38.0867V36.7967H29.6972V38.0422C29.6972 38.2868 29.7538 38.4648 29.848 38.5982C29.9423 38.7316 30.0932 38.7984 30.2628 38.7984C30.4137 38.7984 30.5645 38.7761 30.7342 38.7094V36.819H31.281V40.9334ZM27.9626 40.9334H27.4158V38.1312L25.8131 41.0002H25.5868V36.7745H26.1336V39.5768L27.7363 36.7078H27.9626V40.9334ZM23.5128 37.4195V40.9334H22.966V37.4195H21.9856V36.7745H24.531V37.4195H23.5128ZM19.8927 37.9755L19.5156 39.5101H20.2509L19.8927 37.9755ZM20.6469 40.9334L20.4206 40.0883H19.3648L19.1574 40.9334H18.554L19.7796 36.73H20.0247L21.2691 40.9334H20.6469ZM17.8375 40.9334H17.3096L16.989 38.6872L16.3668 40.9779H16.1783L15.5561 38.6872L15.2167 40.9334H14.6888L15.311 36.7745H15.5938L16.2537 39.5768L16.8948 36.7745H17.1776L17.8375 40.9334ZM11.7097 38.7984C11.7097 39.3099 11.7663 39.688 11.8982 39.9326C12.0114 40.1995 12.1999 40.3107 12.4262 40.3107C12.6901 40.3107 12.9164 40.1773 13.0484 39.9326C13.1992 39.6657 13.2558 39.2877 13.2558 38.7984C13.2558 37.8198 12.9918 37.3305 12.4639 37.3305C12.2188 37.3305 12.0302 37.464 11.8982 37.7308C11.7851 37.9977 11.7097 38.3536 11.7097 38.7984ZM11.144 38.7984C11.144 38.1979 11.2572 37.7086 11.5023 37.3083C11.7474 36.9079 12.0679 36.6855 12.4639 36.6855C12.8975 36.6855 13.2369 36.8635 13.482 37.2416C13.7083 37.6196 13.8403 38.1312 13.8403 38.7984C13.8403 39.4656 13.7272 39.9993 13.482 40.3997C13.2369 40.8 12.8975 40.9779 12.445 40.9779C12.0302 40.9779 11.7097 40.7777 11.4834 40.3997C11.2572 40.0216 11.144 39.4878 11.144 38.7984ZM9.23971 37.4195V40.9334H8.69292V37.4195H7.71247V36.7745H10.2579V37.4195H9.23971ZM5.2802 38.9318V40.3107C5.39333 40.3329 5.4876 40.3329 5.54417 40.3329C5.77042 40.3329 5.94012 40.2885 6.05325 40.1773C6.16637 40.0661 6.22294 39.8881 6.22294 39.599C6.22294 39.3766 6.16637 39.1987 6.0721 39.0875C5.97783 38.9763 5.78928 38.9318 5.52531 38.9318C5.46875 38.9318 5.37447 38.9318 5.2802 38.9318ZM5.2802 37.3528V38.3536C5.39333 38.3536 5.46875 38.3758 5.54417 38.3758C5.90241 38.3758 6.0721 38.1979 6.0721 37.842C6.0721 37.5307 5.90241 37.3528 5.58187 37.3528C5.50646 37.3528 5.41218 37.3528 5.2802 37.3528ZM5.67615 40.9334H4.73341V36.7745C5.22363 36.7523 5.50645 36.73 5.60073 36.73C5.92126 36.73 6.16637 36.819 6.35492 37.0192C6.54347 37.1971 6.61889 37.464 6.61889 37.8198C6.61889 38.1534 6.48691 38.4203 6.22294 38.5982C6.60004 38.7761 6.78858 39.1542 6.78858 39.7102C6.78858 40.0883 6.67546 40.3774 6.46805 40.5998C6.2795 40.8222 6.01554 40.9334 5.67615 40.9334ZM2.45197 37.9755L2.07488 39.5101H2.81022L2.45197 37.9755ZM3.20617 40.9334L2.97991 40.0883H1.92404L1.71664 40.9334H1.11328L2.33885 36.73H2.58396L3.82838 40.9334H3.20617Z" fill="#273047"/>
<path d="M24.3611 13.9346H1V17.9378H24.3611V13.9346Z" fill="#273047"/>
<path d="M24.3611 13.9346H1V17.9378H24.3611V13.9346Z" fill="#273047" stroke="black" stroke-width="0.257818" stroke-miterlimit="22.9256"/>
<path d="M24.3611 8.72852H1V12.7318H24.3611V8.72852Z" fill="#273047"/>
<path d="M24.3611 8.72852H1V12.7318H24.3611V8.72852Z" fill="#273047" stroke="black" stroke-width="0.257818" stroke-miterlimit="22.9256"/>
<path fill-rule="evenodd" clip-rule="evenodd" d="M1.43359 7.863H24.3611L26.322 4.19336H4.62006L1.43359 7.863Z" fill="#273047"/>
<path d="M1.43359 7.863H24.3611L26.322 4.19336H4.62006L1.43359 7.863Z" fill="#273047" stroke="black" stroke-width="0.257818" stroke-miterlimit="22.9256"/>
<path fill-rule="evenodd" clip-rule="evenodd" d="M5.82617 3.3919H27.1133L34.806 1.25684H14.7634L5.82617 3.3919Z" fill="#273047"/>
<path d="M5.82617 3.3919H27.1133L34.806 1.25684H14.7634L5.82617 3.3919Z" fill="#273047" stroke="black" stroke-width="0.257818" stroke-miterlimit="22.9256"/>
<path fill-rule="evenodd" clip-rule="evenodd" d="M41.537 24.4313C41.4804 24.2311 41.273 23.8753 41.2542 23.6751C41.1976 22.9189 41.405 22.2295 41.1033 21.54C40.9336 21.1842 41.0845 20.5392 41.0845 20.2056C41.1033 19.6274 41.2542 19.0936 41.2165 18.4486C41.2165 18.4264 41.4616 17.648 41.4427 18.115C41.4239 18.5376 41.7821 18.9824 41.4993 20.0499C41.2542 20.9395 41.8952 22.2962 41.5181 23.208C41.4239 23.4749 41.5935 24.6314 41.537 24.4313ZM38.2751 29.8801C38.2751 29.8801 38.0488 29.2796 38.2562 29.035C38.4448 28.7903 38.935 28.8126 39.1047 28.7014C39.2744 28.5902 39.5007 28.2343 39.7081 28.0342C39.8966 27.834 40.104 27.367 39.9532 27.0778C39.8023 26.7665 39.2556 26.0326 39.4252 25.3653C39.5949 24.6981 39.3875 24.2311 39.3121 23.7196C39.2367 23.208 39.0104 22.3407 39.0293 21.0507C39.0481 19.7608 38.6899 17.7814 38.7653 16.6472C38.8596 15.5129 39.1047 14.1785 39.2556 13.4668C39.4064 12.7774 39.4252 11.1316 39.4441 10.5311C39.463 9.93062 39.2556 8.72965 39.2556 8.72965C39.2556 8.72965 39.1801 9.33013 39.0293 9.35237C38.8785 9.37461 38.7842 9.4191 38.7842 9.4191C38.7842 9.4191 38.7653 9.57478 38.7276 9.66374C38.671 9.7527 38.5391 9.77494 38.5391 9.77494C38.5391 9.77494 38.5202 9.95286 38.4259 10.0863C38.3317 10.2197 38.1243 10.1975 38.1243 10.1975C38.1243 10.1975 38.1243 10.3532 38.0866 10.3977C38.0677 10.4199 37.9734 10.6645 37.7849 10.709C37.5963 10.7535 37.3135 11.1761 36.9741 11.443C36.6536 11.6876 35.3149 12.6662 34.9378 12.8886C34.8812 12.9331 34.4287 13.2222 34.3721 13.3111C34.3156 13.4223 34.3344 13.6447 34.1836 13.8227C34.1836 13.8227 34.1082 13.8894 34.0893 13.9561C34.0139 14.223 33.5614 14.3564 33.3351 14.3564C33.222 14.4231 33.09 14.3564 33.0712 14.3119C33.0335 14.2675 32.8826 14.4232 32.7883 14.3119C32.6941 14.2007 32.7695 14.0673 32.7695 14.0673C32.7695 14.0673 32.5998 14.0673 32.5998 13.9116C32.5809 13.7337 32.7506 13.7337 32.7883 13.6892L32.8072 13.667L31.9964 12.8441C31.9587 12.7996 31.9399 12.7107 31.9776 12.6662L32.2038 12.3548C32.2416 12.3103 32.317 12.2881 32.3547 12.3326L33.0146 12.9998C33.0712 12.8886 33.1654 12.7996 33.2597 12.7551C33.4294 12.6884 33.6368 12.6439 33.7499 12.6217C33.8442 12.6217 33.9573 12.5995 34.127 12.4438C34.3344 12.2436 35.0321 11.5764 35.4092 11.2428C35.8051 10.887 36.6913 9.88614 36.6913 9.88614C36.6913 9.88614 36.7101 9.55254 36.8798 9.37461C37.0495 9.19669 37.0495 9.26341 37.0495 9.26341C37.0495 9.26341 37.0307 8.97429 37.2004 8.77413C37.3889 8.55172 37.4455 8.64069 37.5398 8.41828C37.634 8.19588 37.5209 7.8178 37.5963 7.59539C37.6717 7.37299 37.8603 7.35075 37.9169 7.15059C37.9923 6.92819 38.1054 6.57234 38.3505 6.30546C38.5956 6.03858 38.6899 6.08306 38.6899 6.08306C38.6899 6.08306 39.972 5.50481 40.2737 5.41585C40.3114 5.39361 40.3868 5.37137 40.4811 5.34913C40.5754 5.26017 40.6508 5.17121 40.6697 5.08225C40.7262 4.83761 40.6131 4.63744 40.6131 4.63744C40.6131 4.63744 40.0475 4.81536 39.9343 4.65968C39.8212 4.52624 39.9155 4.34832 39.9155 4.2816C39.9155 4.23712 39.8589 4.14816 39.8589 4.10368C39.8589 4.0592 39.8778 3.92575 39.8778 3.92575L39.84 3.83679C39.84 3.83679 39.7458 3.74783 39.7458 3.68111C39.7458 3.59215 39.7458 3.48095 39.7458 3.48095C39.7458 3.48095 39.5195 3.48095 39.5195 3.39199C39.5195 3.30303 39.5761 3.1251 39.6326 3.03614C39.6892 2.94718 39.7835 2.76926 39.7835 2.76926C39.7835 2.76926 39.7835 2.74702 39.7458 2.6803C39.7081 2.61358 39.7269 2.52462 39.7646 2.43566C39.8023 2.3467 39.8778 2.19102 39.8966 2.1243C39.8966 2.05757 39.9532 1.90189 39.9909 1.85741C39.9909 1.85741 39.8023 1.74621 39.8023 1.63501C39.8023 1.52381 39.84 1.32364 39.9343 1.25692C40.0286 1.1902 40.1794 1.079 40.3303 1.079C40.4811 1.05676 40.9336 1.10124 41.0279 1.079C41.1222 1.05676 41.4239 0.967802 41.537 1.01228C41.6501 1.05676 41.9518 1.14572 42.0461 1.34589C42.1592 1.52381 42.1403 1.61277 42.1403 1.61277C42.1403 1.61277 42.4043 1.70173 42.4609 1.87965C42.5174 2.07981 42.5929 2.61358 42.5363 2.88046C42.4797 3.14735 42.3854 3.50319 42.31 3.63663C42.2346 3.77007 42.1781 3.97024 42.1781 4.08144C42.1781 4.19264 42.1781 4.34832 42.2723 4.48176C42.3666 4.59296 42.4797 4.70416 42.6683 4.79312C42.7248 4.81536 42.7814 4.8376 42.8568 4.88208C43.2151 4.85984 43.7053 4.8376 43.8938 4.90433C44.2144 5.01553 44.2521 5.01553 44.4218 5.23793C44.5915 5.46033 44.7046 5.34913 44.8554 5.54929C45.0063 5.74945 45.1005 6.17202 45.1005 6.37218C45.1005 6.57234 45.176 6.79474 45.3268 7.03939C45.4776 7.28403 45.6473 7.41747 45.6473 7.61763C45.6473 7.8178 45.5908 7.97348 45.685 8.17364C45.7793 8.3738 45.8736 8.52948 45.8736 8.77413C45.8736 9.01877 45.9679 9.46358 45.9679 9.46358C45.9679 9.46358 46.0244 9.6415 46.0621 9.77494C46.0998 9.90838 46.0621 10.1975 46.0621 10.1975C46.0621 10.1975 46.1753 10.3977 46.1941 10.6201C46.213 10.8647 46.2318 11.9767 46.0999 12.6439C45.9679 13.3334 45.6096 15.7576 45.6096 15.7576C45.6096 15.7576 45.6473 16.2691 45.6473 16.6917C45.6473 17.1142 45.6285 17.4256 45.3645 17.4923C45.1005 17.559 44.5726 17.6702 44.4972 17.3589C44.4218 17.0475 44.3464 16.5805 44.4972 16.3803C44.648 16.1801 44.7423 15.8465 44.8177 15.7353C44.8931 15.6241 44.9874 15.1348 44.9686 14.3787C44.9309 13.6003 44.8554 12.4882 44.9497 12.0434C45.044 11.5986 44.9309 11.3095 44.9686 11.1538C44.9686 11.1538 44.6669 11.0649 44.6292 10.9092C44.5915 10.7535 44.5349 10.3532 44.4783 10.2197C44.4406 10.0863 44.2898 9.8639 44.1955 9.59702C44.1012 9.33013 44.0447 9.24117 44.0447 9.24117C44.0447 9.24117 44.007 10.5533 44.0635 10.7757C44.1201 10.9982 44.139 12.2658 44.139 12.5105C44.139 12.7551 44.1955 13.5113 44.0635 13.578C43.9127 13.6447 43.8561 13.7115 43.8561 13.7115C43.8561 13.7115 44.007 14.5566 43.9693 15.8243C43.9315 17.092 44.007 19.1826 43.9504 19.7608C43.8938 20.3391 43.9693 22.4519 43.9315 22.8077C43.8938 23.1636 44.007 24.1421 43.9315 24.3868C43.8561 24.6314 43.7807 24.5869 43.8184 24.7426C43.8561 24.9205 43.9504 25.2764 43.9504 25.521C43.9315 25.7657 43.743 26.2327 43.7619 26.4996C43.7807 26.7665 43.8561 27.1446 43.9127 27.3892C43.9693 27.6339 43.9881 28.0564 43.9127 28.3233C43.8373 28.5902 43.6487 28.6569 43.6487 28.6569C43.9315 29.3464 43.4225 31.1256 43.1774 31.2145C42.7437 31.3925 42.3666 31.2145 42.1781 30.3472C42.1403 30.2137 42.0084 29.5243 41.9895 29.2796C41.9706 29.0572 41.801 29.3241 41.7444 29.124C41.7255 29.035 41.7444 29.3241 41.669 29.3686C41.4993 29.4576 41.2919 29.591 40.8205 29.591L40.7828 29.3686L40.632 29.6132C40.6697 29.6132 39.5384 30.3027 38.2751 29.8801Z" fill="#273047"/>
<path d="M41.537 24.4313C41.4804 24.2311 41.273 23.8753 41.2542 23.6751C41.1976 22.9189 41.405 22.2295 41.1033 21.54C40.9336 21.1842 41.0845 20.5392 41.0845 20.2056C41.1033 19.6274 41.2542 19.0936 41.2165 18.4486C41.2165 18.4264 41.4616 17.648 41.4427 18.115C41.4239 18.5376 41.7821 18.9824 41.4993 20.0499C41.2542 20.9395 41.8952 22.2962 41.5181 23.208C41.4239 23.4749 41.5935 24.6314 41.537 24.4313ZM38.2751 29.8801C38.2751 29.8801 38.0488 29.2796 38.2562 29.035C38.4448 28.7903 38.935 28.8126 39.1047 28.7014C39.2744 28.5902 39.5007 28.2343 39.7081 28.0342C39.8966 27.834 40.104 27.367 39.9532 27.0778C39.8023 26.7665 39.2556 26.0326 39.4252 25.3653C39.5949 24.6981 39.3875 24.2311 39.3121 23.7196C39.2367 23.208 39.0104 22.3407 39.0293 21.0507C39.0481 19.7608 38.6899 17.7814 38.7653 16.6472C38.8596 15.5129 39.1047 14.1785 39.2556 13.4668C39.4064 12.7774 39.4252 11.1316 39.4441 10.5311C39.463 9.93062 39.2556 8.72965 39.2556 8.72965C39.2556 8.72965 39.1801 9.33013 39.0293 9.35237C38.8785 9.37461 38.7842 9.4191 38.7842 9.4191C38.7842 9.4191 38.7653 9.57478 38.7276 9.66374C38.671 9.7527 38.5391 9.77494 38.5391 9.77494C38.5391 9.77494 38.5202 9.95286 38.4259 10.0863C38.3317 10.2197 38.1243 10.1975 38.1243 10.1975C38.1243 10.1975 38.1243 10.3532 38.0866 10.3977C38.0677 10.4199 37.9734 10.6645 37.7849 10.709C37.5963 10.7535 37.3135 11.1761 36.9741 11.443C36.6536 11.6876 35.3149 12.6662 34.9378 12.8886C34.8812 12.9331 34.4287 13.2222 34.3721 13.3111C34.3156 13.4223 34.3344 13.6447 34.1836 13.8227C34.1836 13.8227 34.1082 13.8894 34.0893 13.9561C34.0139 14.223 33.5614 14.3564 33.3351 14.3564C33.222 14.4231 33.09 14.3564 33.0712 14.3119C33.0335 14.2675 32.8826 14.4232 32.7883 14.3119C32.6941 14.2007 32.7695 14.0673 32.7695 14.0673C32.7695 14.0673 32.5998 14.0673 32.5998 13.9116C32.5809 13.7337 32.7506 13.7337 32.7883 13.6892L32.8072 13.667L31.9964 12.8441C31.9587 12.7996 31.9399 12.7107 31.9776 12.6662L32.2038 12.3548C32.2416 12.3103 32.317 12.2881 32.3547 12.3326L33.0146 12.9998C33.0712 12.8886 33.1654 12.7996 33.2597 12.7551C33.4294 12.6884 33.6368 12.6439 33.7499 12.6217C33.8442 12.6217 33.9573 12.5995 34.127 12.4438C34.3344 12.2436 35.0321 11.5764 35.4092 11.2428C35.8051 10.887 36.6913 9.88614 36.6913 9.88614C36.6913 9.88614 36.7101 9.55254 36.8798 9.37461C37.0495 9.19669 37.0495 9.26341 37.0495 9.26341C37.0495 9.26341 37.0307 8.97429 37.2004 8.77413C37.3889 8.55172 37.4455 8.64069 37.5398 8.41828C37.634 8.19588 37.5209 7.8178 37.5963 7.59539C37.6717 7.37299 37.8603 7.35075 37.9169 7.15059C37.9923 6.92819 38.1054 6.57234 38.3505 6.30546C38.5956 6.03858 38.6899 6.08306 38.6899 6.08306C38.6899 6.08306 39.972 5.50481 40.2737 5.41585C40.3114 5.39361 40.3868 5.37137 40.4811 5.34913C40.5754 5.26017 40.6508 5.17121 40.6697 5.08225C40.7262 4.83761 40.6131 4.63744 40.6131 4.63744C40.6131 4.63744 40.0475 4.81536 39.9343 4.65968C39.8212 4.52624 39.9155 4.34832 39.9155 4.2816C39.9155 4.23712 39.8589 4.14816 39.8589 4.10368C39.8589 4.0592 39.8778 3.92575 39.8778 3.92575L39.84 3.83679C39.84 3.83679 39.7458 3.74783 39.7458 3.68111C39.7458 3.59215 39.7458 3.48095 39.7458 3.48095C39.7458 3.48095 39.5195 3.48095 39.5195 3.39199C39.5195 3.30303 39.5761 3.1251 39.6326 3.03614C39.6892 2.94718 39.7835 2.76926 39.7835 2.76926C39.7835 2.76926 39.7835 2.74702 39.7458 2.6803C39.7081 2.61358 39.7269 2.52462 39.7646 2.43566C39.8023 2.3467 39.8778 2.19102 39.8966 2.1243C39.8966 2.05757 39.9532 1.90189 39.9909 1.85741C39.9909 1.85741 39.8023 1.74621 39.8023 1.63501C39.8023 1.52381 39.84 1.32364 39.9343 1.25692C40.0286 1.1902 40.1794 1.079 40.3303 1.079C40.4811 1.05676 40.9336 1.10124 41.0279 1.079C41.1222 1.05676 41.4239 0.967802 41.537 1.01228C41.6501 1.05676 41.9518 1.14572 42.0461 1.34589C42.1592 1.52381 42.1403 1.61277 42.1403 1.61277C42.1403 1.61277 42.4043 1.70173 42.4609 1.87965C42.5174 2.07981 42.5929 2.61358 42.5363 2.88046C42.4797 3.14735 42.3854 3.50319 42.31 3.63663C42.2346 3.77007 42.1781 3.97024 42.1781 4.08144C42.1781 4.19264 42.1781 4.34832 42.2723 4.48176C42.3666 4.59296 42.4797 4.70416 42.6683 4.79312C42.7248 4.81536 42.7814 4.8376 42.8568 4.88208C43.2151 4.85984 43.7053 4.8376 43.8938 4.90433C44.2144 5.01553 44.2521 5.01553 44.4218 5.23793C44.5915 5.46033 44.7046 5.34913 44.8554 5.54929C45.0063 5.74945 45.1005 6.17202 45.1005 6.37218C45.1005 6.57234 45.176 6.79474 45.3268 7.03939C45.4776 7.28403 45.6473 7.41747 45.6473 7.61763C45.6473 7.8178 45.5908 7.97348 45.685 8.17364C45.7793 8.3738 45.8736 8.52948 45.8736 8.77413C45.8736 9.01877 45.9679 9.46358 45.9679 9.46358C45.9679 9.46358 46.0244 9.6415 46.0621 9.77494C46.0998 9.90838 46.0621 10.1975 46.0621 10.1975C46.0621 10.1975 46.1753 10.3977 46.1941 10.6201C46.213 10.8647 46.2318 11.9767 46.0999 12.6439C45.9679 13.3334 45.6096 15.7576 45.6096 15.7576C45.6096 15.7576 45.6473 16.2691 45.6473 16.6917C45.6473 17.1142 45.6285 17.4256 45.3645 17.4923C45.1005 17.559 44.5726 17.6702 44.4972 17.3589C44.4218 17.0475 44.3464 16.5805 44.4972 16.3803C44.648 16.1801 44.7423 15.8465 44.8177 15.7353C44.8931 15.6241 44.9874 15.1348 44.9686 14.3787C44.9309 13.6003 44.8554 12.4882 44.9497 12.0434C45.044 11.5986 44.9309 11.3095 44.9686 11.1538C44.9686 11.1538 44.6669 11.0649 44.6292 10.9092C44.5915 10.7535 44.5349 10.3532 44.4783 10.2197C44.4406 10.0863 44.2898 9.8639 44.1955 9.59702C44.1012 9.33013 44.0447 9.24117 44.0447 9.24117C44.0447 9.24117 44.007 10.5533 44.0635 10.7757C44.1201 10.9982 44.139 12.2658 44.139 12.5105C44.139 12.7551 44.1955 13.5113 44.0635 13.578C43.9127 13.6447 43.8561 13.7115 43.8561 13.7115C43.8561 13.7115 44.007 14.5566 43.9693 15.8243C43.9315 17.092 44.007 19.1826 43.9504 19.7608C43.8938 20.3391 43.9693 22.4519 43.9315 22.8077C43.8938 23.1636 44.007 24.1421 43.9315 24.3868C43.8561 24.6314 43.7807 24.5869 43.8184 24.7426C43.8561 24.9205 43.9504 25.2764 43.9504 25.521C43.9315 25.7657 43.743 26.2327 43.7619 26.4996C43.7807 26.7665 43.8561 27.1446 43.9127 27.3892C43.9693 27.6339 43.9881 28.0564 43.9127 28.3233C43.8373 28.5902 43.6487 28.6569 43.6487 28.6569C43.9315 29.3464 43.4225 31.1256 43.1774 31.2145C42.7437 31.3925 42.3666 31.2145 42.1781 30.3472C42.1403 30.2137 42.0084 29.5243 41.9895 29.2796C41.9706 29.0572 41.801 29.3241 41.7444 29.124C41.7255 29.035 41.7444 29.3241 41.669 29.3686C41.4993 29.4576 41.2919 29.591 40.8205 29.591L40.7828 29.3686L40.632 29.6132C40.6697 29.6132 39.5384 30.3027 38.2751 29.8801Z" fill="#273047" stroke="black" stroke-width="0.257818" stroke-miterlimit="22.9256"/>
</svg>
