<svg width="30" height="30" viewBox="0 0 30 30" fill="none" xmlns="http://www.w3.org/2000/svg">
<path d="M14.9969 0C6.72683 0 0 6.7283 0 14.9996C0 18.2798 1.05802 21.3223 2.85655 23.7916L0.987103 29.3651L6.75072 27.5222C9.12205 29.0919 11.9525 30 15.0031 30C23.2732 30 30 23.2714 30 15.0004C30 6.7293 23.2729 0.000746211 15.0031 0.000746211H14.9944L14.9969 0Z" fill="url(#paint0_linear_447_266)"/>
<path d="M10.7053 7.63081C10.4282 6.94597 10.2019 6.92109 9.76771 6.89343L9.27257 6.875C8.70907 6.875 8.11786 7.04091 7.76128 7.40315C7.32711 7.84557 6.25 8.87606 6.25 10.9905C6.25 13.1049 7.79546 15.1493 8.00516 15.4359C8.22225 15.7125 11.0185 20.1238 15.3611 21.9175C18.7569 23.3213 19.7638 23.1913 20.537 23.0263C21.6658 22.7839 23.0811 21.9516 23.4376 20.9469C23.7942 19.9422 23.7942 19.085 23.6889 18.9007C23.5836 18.7163 23.2981 18.6242 22.864 18.3983C22.4298 18.1725 20.3199 17.142 19.9199 17.0029C19.5292 16.8554 19.156 16.9079 18.8604 17.3236C18.4447 17.9043 18.0354 18.4942 17.7057 18.8481C17.4451 19.1247 17.0193 19.1615 16.6636 19.0141C16.1861 18.815 14.8484 18.3467 13.1995 16.8821C11.9229 15.7484 11.0545 14.3345 10.8023 13.9105C10.5501 13.4773 10.7765 13.2257 10.976 12.9915C11.1931 12.7224 11.4009 12.5325 11.6189 12.2818C11.837 12.0311 11.958 11.9002 12.0965 11.6062C12.2443 11.3297 12.1399 11.0255 12.0356 10.8089C11.9312 10.5923 11.0628 8.47695 10.7072 7.61975L10.7053 7.63081Z" fill="#FEFEFE"/>
<defs>
<linearGradient id="paint0_linear_447_266" x1="-112.73" y1="-50.2556" x2="-112.73" y2="-49.1551" gradientUnits="userSpaceOnUse">
<stop stop-color="#6EBF61"/>
<stop offset="0.231" stop-color="#50A557"/>
<stop offset="0.522" stop-color="#2A904F"/>
<stop offset="0.812" stop-color="#50A557"/>
<stop offset="1" stop-color="#6EBF63"/>
</linearGradient>
</defs>
</svg>
