<svg width="97" height="87" viewBox="0 0 97 87" fill="none" xmlns="http://www.w3.org/2000/svg">
<rect x="1" y="1" width="95" height="85" stroke="black" stroke-width="2"/>
<rect x="7" y="7" width="83" height="19" stroke="black" stroke-width="2"/>
<path d="M11 11H26" stroke="black" stroke-width="2"/>
<path d="M11 16H26" stroke="black" stroke-width="2"/>
<path d="M11 21H26" stroke="black" stroke-width="2"/>
<path d="M31 11H46" stroke="black" stroke-width="2"/>
<path d="M31 16H46" stroke="black" stroke-width="2"/>
<path d="M31 21H46" stroke="black" stroke-width="2"/>
<path d="M51 11H66" stroke="black" stroke-width="2"/>
<path d="M51 16H66" stroke="black" stroke-width="2"/>
<path d="M51 21H66" stroke="black" stroke-width="2"/>
<path d="M51 11H66" stroke="black" stroke-width="2"/>
<path d="M51 16H66" stroke="black" stroke-width="2"/>
<path d="M51 21H66" stroke="black" stroke-width="2"/>
<path d="M51 11H66" stroke="black" stroke-width="2"/>
<path d="M51 16H66" stroke="black" stroke-width="2"/>
<path d="M51 21H66" stroke="black" stroke-width="2"/>
<path d="M71 11H86" stroke="black" stroke-width="2"/>
<path d="M71 16H86" stroke="black" stroke-width="2"/>
<path d="M71 21H86" stroke="black" stroke-width="2"/>
<rect x="7" y="34" width="83" height="19" stroke="black" stroke-width="2"/>
<path d="M11 38H26" stroke="black" stroke-width="2"/>
<path d="M11 43H26" stroke="black" stroke-width="2"/>
<path d="M11 48H26" stroke="black" stroke-width="2"/>
<path d="M31 38H46" stroke="black" stroke-width="2"/>
<path d="M31 43H46" stroke="black" stroke-width="2"/>
<path d="M31 48H46" stroke="black" stroke-width="2"/>
<path d="M51 38H66" stroke="black" stroke-width="2"/>
<path d="M51 43H66" stroke="black" stroke-width="2"/>
<path d="M51 48H66" stroke="black" stroke-width="2"/>
<path d="M51 38H66" stroke="black" stroke-width="2"/>
<path d="M51 43H66" stroke="black" stroke-width="2"/>
<path d="M51 48H66" stroke="black" stroke-width="2"/>
<path d="M51 38H66" stroke="black" stroke-width="2"/>
<path d="M51 43H66" stroke="black" stroke-width="2"/>
<path d="M51 48H66" stroke="black" stroke-width="2"/>
<path d="M71 38H86" stroke="black" stroke-width="2"/>
<path d="M71 43H86" stroke="black" stroke-width="2"/>
<path d="M71 48H86" stroke="black" stroke-width="2"/>
<rect x="7" y="60" width="83" height="19" stroke="black" stroke-width="2"/>
<path d="M11 64H26" stroke="black" stroke-width="2"/>
<path d="M11 69H26" stroke="black" stroke-width="2"/>
<path d="M11 74H26" stroke="black" stroke-width="2"/>
<path d="M31 64H46" stroke="black" stroke-width="2"/>
<path d="M31 69H46" stroke="black" stroke-width="2"/>
<path d="M31 74H46" stroke="black" stroke-width="2"/>
<path d="M51 64H66" stroke="black" stroke-width="2"/>
<path d="M51 69H66" stroke="black" stroke-width="2"/>
<path d="M51 74H66" stroke="black" stroke-width="2"/>
<path d="M51 64H66" stroke="black" stroke-width="2"/>
<path d="M51 69H66" stroke="black" stroke-width="2"/>
<path d="M51 74H66" stroke="black" stroke-width="2"/>
<path d="M51 64H66" stroke="black" stroke-width="2"/>
<path d="M51 69H66" stroke="black" stroke-width="2"/>
<path d="M51 74H66" stroke="black" stroke-width="2"/>
<path d="M71 64H86" stroke="black" stroke-width="2"/>
<path d="M71 69H86" stroke="black" stroke-width="2"/>
<path d="M71 74H86" stroke="black" stroke-width="2"/>
</svg>
