<svg width="97" height="87" viewBox="0 0 97 87" fill="none" xmlns="http://www.w3.org/2000/svg">
<rect x="1" y="1" width="95" height="85" stroke="black" stroke-width="2"/>
<rect x="7" y="7" width="83" height="19" stroke="black" stroke-width="2"/>
<rect x="12" y="10" width="13" height="13" stroke="black" stroke-width="2"/>
<rect x="32" y="10" width="13" height="13" stroke="black" stroke-width="2"/>
<rect x="52" y="10" width="13" height="13" stroke="black" stroke-width="2"/>
<rect x="72" y="10" width="13" height="13" stroke="black" stroke-width="2"/>
<rect x="15.5" y="14.5" width="6" height="4" stroke="black"/>
<rect x="35.5" y="14.5" width="6" height="4" stroke="black"/>
<rect x="55.5" y="14.5" width="6" height="4" stroke="black"/>
<rect x="75.5" y="14.5" width="6" height="4" stroke="black"/>
<rect x="7" y="32" width="83" height="19" stroke="black" stroke-width="2"/>
<rect x="12" y="35" width="13" height="13" stroke="black" stroke-width="2"/>
<rect x="32" y="35" width="13" height="13" stroke="black" stroke-width="2"/>
<rect x="52" y="35" width="13" height="13" stroke="black" stroke-width="2"/>
<rect x="72" y="35" width="13" height="13" stroke="black" stroke-width="2"/>
<rect x="15.5" y="39.5" width="6" height="4" stroke="black"/>
<rect x="35.5" y="39.5" width="6" height="4" stroke="black"/>
<rect x="55.5" y="39.5" width="6" height="4" stroke="black"/>
<rect x="75.5" y="39.5" width="6" height="4" stroke="black"/>
<rect x="7" y="57" width="83" height="19" stroke="black" stroke-width="2"/>
<rect x="12" y="60" width="13" height="13" stroke="black" stroke-width="2"/>
<rect x="32" y="60" width="13" height="13" stroke="black" stroke-width="2"/>
<rect x="52" y="60" width="13" height="13" stroke="black" stroke-width="2"/>
<rect x="72" y="60" width="13" height="13" stroke="black" stroke-width="2"/>
<rect x="15.5" y="64.5" width="6" height="4" stroke="black"/>
<rect x="35.5" y="64.5" width="6" height="4" stroke="black"/>
<rect x="55.5" y="64.5" width="6" height="4" stroke="black"/>
<rect x="75.5" y="64.5" width="6" height="4" stroke="black"/>
</svg>
